<svg width="20" height="20" viewBox="0 0 20 20" fill="none" xmlns="http://www.w3.org/2000/svg">
<path fillRule="evenodd" clipRule="evenodd" d="M1.66699 10.0003C1.66699 9.54009 2.04009 9.16699 2.50033 9.16699H17.5003C17.9606 9.16699 18.3337 9.54009 18.3337 10.0003C18.3337 10.4606 17.9606 10.8337 17.5003 10.8337H2.50033C2.04009 10.8337 1.66699 10.4606 1.66699 10.0003Z" fill="black"/>
<path fillRule="evenodd" clipRule="evenodd" d="M1.66699 5.00033C1.66699 4.54009 2.04009 4.16699 2.50033 4.16699H17.5003C17.9606 4.16699 18.3337 4.54009 18.3337 5.00033C18.3337 5.46056 17.9606 5.83366 17.5003 5.83366H2.50033C2.04009 5.83366 1.66699 5.46056 1.66699 5.00033Z" fill="black"/>
<path fillRule="evenodd" clipRule="evenodd" d="M1.66699 15.0003C1.66699 14.5401 2.04009 14.167 2.50033 14.167H17.5003C17.9606 14.167 18.3337 14.5401 18.3337 15.0003C18.3337 15.4606 17.9606 15.8337 17.5003 15.8337H2.50033C2.04009 15.8337 1.66699 15.4606 1.66699 15.0003Z" fill="black"/>
</svg>
