<svg width="21" height="21" viewBox="0 0 21 21" fill="none" xmlns="http://www.w3.org/2000/svg">
<path fill-rule="evenodd" clip-rule="evenodd" d="M16.0879 4.55078C16.4239 4.88671 16.4239 5.43137 16.0879 5.76731L5.76535 16.0899C5.42942 16.4258 4.88476 16.4258 4.54883 16.0899C4.21289 15.754 4.21289 15.2093 4.54883 14.8734L14.8714 4.55078C15.2073 4.21484 15.752 4.21484 16.0879 4.55078Z" fill="#1D1D1F"/>
<path fill-rule="evenodd" clip-rule="evenodd" d="M4.54883 4.55078C4.88476 4.21484 5.42942 4.21484 5.76535 4.55078L16.0879 14.8734C16.4239 15.2093 16.4239 15.754 16.0879 16.0899C15.752 16.4258 15.2073 16.4258 14.8714 16.0899L4.54883 5.76731C4.21289 5.43137 4.21289 4.88671 4.54883 4.55078Z" fill="#1D1D1F"/>
</svg>
